<svg xmlns="http://www.w3.org/2000/svg" viewBox="-67 -67 134 134" width="64" height="64">
  <circle cx="0" cy="0" r="36" fill="none" stroke="#5b8fc9" stroke-width="2" opacity="1.0"/>
  <circle cx="0" cy="0" r="52" fill="none" stroke="#5b8fc9" stroke-width="1.4" opacity="0.66"/>
  <circle cx="0" cy="0" r="65" fill="none" stroke="#5b8fc9" stroke-width="1" opacity="0.33"/>
  <g transform="scale(0.0277)" fill="#5b8fc9">
    <polygon points="-624,249 -496,27 64,997 -192,997 -320,775 -448,997 -576,997 -640,886 -448,554"/>
    <polygon points="-528,-415 -272,-415 -832,554 -960,332 -832,110 -1088,110 -1152,0 -1088,-110 -704,-110"/>
    <polygon points="96,-665 224,-443 -896,-443 -768,-665 -512,-665 -640,-886 -576,-997 -448,-997 -256,-665"/>
    <polygon points="624,-249 496,-27 -64,-997 192,-997 320,-775 448,-997 576,-997 640,-886 448,-554"/>
    <polygon points="528,415 272,415 832,-554 960,-332 832,-110 1088,-110 1152,0 1088,110 704,110"/>
    <polygon points="-96,665 -224,443 896,443 768,665 512,665 640,886 576,997 448,997 256,665"/>
  </g>
</svg>
